<?xml version="1.0" encoding="utf-8"?>
<!-- Generator: Adobe Illustrator 26.1.0, SVG Export Plug-In . SVG Version: 6.00 Build 0)  -->
<svg version="1.1" id="Ebene_1" xmlns="http://www.w3.org/2000/svg" xmlns:xlink="http://www.w3.org/1999/xlink" x="0px" y="0px"
	 viewBox="0 0 1726 1400.4" style="enable-background:new 0 0 1726 1400.4;" xml:space="preserve">
<style type="text/css">
	.st0{fill:none;stroke:#000000;stroke-width:2;stroke-linecap:round;stroke-linejoin:round;stroke-miterlimit:10;}
</style>
<g id="DzHpx3.tif">
	<g>
		<path class="st0" d="M710.7,793c-4.1-7.4-0.5-14.8,1-21.8c5.5-26.9,7.6-54.1,9.7-81.4c3.7-49.5,3.5-99,2.7-148.5
			c-0.7-40.2-0.8-80.5-5.1-120.6c-0.5-5.1-1.9-10.1-3-15.1c-1.7-7.9-7.1-10.1-15.1-5.3c-11,6.6-20.4,15.3-30.1,23.4
			c-20.3,17.2-34.8,38.7-42.9,64c-6,18.6-9.3,38-13,57.2c-5.9,31.3-12.3,62.5-22.6,92.7c-7.6,22.4-18.6,43.2-30.9,63.3
			c-17.2,28-34.9,55.6-51.9,83.7c-21.9,36.1-39.1,74.4-54.3,113.8c-18.6,48.1-36.6,96.5-60.3,142.4c-17.5,33.9-37,66.5-61.8,95.7
			c-34.1,40.4-74.5,73.7-117.6,104c-36.9,26-75.4,49.3-114.6,71.5c-29.5,16.8-59.3,33.2-88.9,49.8"/>
		<path class="st0" d="M1086,508.2c-1-6.4-0.1-12,2.5-18.3c2.6-6.4,1.7-14.4,1.9-21.7c1.1-34.4,1.8-68.8,3.1-103.2
			c0.7-17.6,1.2-35.2,1.5-52.8c0.6-36.4,1.4-72.9,2.2-109.3c0.5-23.1,0.6-46.2,1.6-69.3c0.8-17.1,0.6-34.2,0.5-51.3
			c0-8-1.1-16.1-2.2-24.1c-1.2-9.1-7.2-15.4-17.3-16.5c-5.2-0.6-10.5-0.7-15.8-0.8c-33.4-0.3-66.8-0.3-100.2-0.8
			c-31.4-0.5-62.8-1.1-94.2-2.3c-22.9-0.9-45.8-1.8-68.6,1c-12.6,1.5-25.1,4.2-36.1,10.6c-13.5,7.9-20.1,21.1-22.5,36.1
			c-1.7,10.4-2.8,21.1-3,31.6c-0.6,25.1-0.5,50.2-0.9,75.4c-0.6,32.2-1,64.3-2.4,96.5c-0.7,17.4-1.7,34.8-5.1,52
			c-1.5,7.4-3.5,14.3-10.2,18.8"/>
		<path class="st0" d="M1119.2,824.7c3.1,4.9,0.6,10.6,2.2,15.9c1.4,4.7,2,9.5,5.3,13.6c6.3,7.8,12.2,8.9,20.4,3
			c8.4-6,13.4-14.3,15.8-24.1c2.6-10.7-2.7-15.4-12-15.9c-9.2-0.4-17.7,2.1-26.4,4.5c-13.6,3.8-27.1,7.7-40.7,11.3
			c-30.4,8.1-61.3,11.6-92.7,13c-23.9,1.1-47.7,1.8-71.6,3c-15.4,0.8-30.8,1.7-46,5.1c-5.8,1.3-11.3,3.4-16.6,6
			c-3.1,1.5-5.7,2.9-6,6.8c-0.3,4.5,3,5.2,6,6.9c10.1,5.6,21.5,5.7,32.5,7.4c34.6,5.2,68.6,1.1,102.5-6.5c17.1-3.8,34.2-7.7,52-8
			c19.2-0.3,36.4,6,52.6,14.8c11.9,6.5,23.5,14,32.5,24.6c3.2,3.8,6.5,7.6,7.6,12.8c2.4,11.7-0.4,22-16.6,27.3
			c-12.7,4.1-25.2,1.6-37.7,0.4c-28.9-2.8-57.7-2.4-86.7-0.7c-30.4,1.7-60.6,5.1-90.4,10.9c-21,4.1-41.4,10.1-58.9,23.8
			c-14.6,11.4-22.6,26.6-29.3,43.1c-10.7,26.5-16.3,54.5-25.6,81.4c-5.8,16.7-13.4,32.5-25.8,45c-10,10.1-22.4,17.1-35.9,22.1
			c-28.1,10.6-57.6,15.7-86.7,22.5c-11.6,2.7-23.3,5.8-33.8,11.5c-4.3,2.4-9.6,1.6-13.3,5.1"/>
		<path class="st0" d="M930,448.6c0.1,1.3,0.3,2.6-1.5,3c-17.8,4.6-35.6,9.4-53.5,13.9c-8.6,2.1-10.2,1.3-12.7-7.1
			c-4.5-14.7-8.6-29.6-12.9-44.4c-2.7-9.1-5.4-18.1-8.3-27.1c-3-9.4-5.8-11.4-15.8-11.3c-19.1,0.2-38.2,0.5-57.3,0.7
			c-6.4,0.1-10,3.2-10.5,9.8c-1.5,19.6-1.9,39.2-0.2,58.8c0.9,10.2,0.2,20.6,0.2,30.9c0,28.4-0.5,56.8,0.2,85.2
			c0.6,23.6,0.8,47.2,0.5,70.8c-0.4,32.2-1.4,64.3-2.2,96.5c-0.2,6.8-2.2,13.7,0.7,20.4c0.2,0.5-0.4,1.5-0.7,2.2
			c-6.2,13-1.8,26.1-0.6,39.2c0.8,9,6.2,14.5,14.9,17.4c13.3,4.5,27,5.5,40.7,6.6c8.3,0.7,16.5,2.2,24.9,1.5c2.9-0.2,4.5,2.2,6.8,3"
			/>
		<path class="st0" d="M1088.3,546.6c0,7,0,14.1,0,21.1c0.2,61.5,0.7,123.1,0.6,184.6c0,12.8-0.3,25.7-2.1,38.4
			c-1.3,9.1-5.7,14.4-15.1,16.7c-17.1,4.2-34.6,5.2-52.1,6.5c-39.1,3-78.3,3.6-117.6,3.8c-12.6,0.1-25.1-0.4-37.7-0.7
			c-1.5,0-3.1-0.3-4.5-0.8c-7.8-2.8-15-0.2-18.9,6.8c-4.3,7.7-9.6,14.7-13.8,22.5c-9.5,17.5-15.6,36.3-20.6,55.2
			c-9.5,36.2-17.3,72.9-29.2,108.4c-10.4,31.2-23.4,61.5-48.7,84.5c-12.4,11.3-26.9,19.3-41.5,27c-17.9,9.5-36.8,17.3-52.7,30.2
			c-17,13.8-28.8,31.4-37.8,51.2c-1.2,2.6,0.3,4.6,0.1,6.8"/>
		<path class="st0" d="M856.9,813.4c1.4-5.5,6.3-6.8,10.5-9.1c16.4-8.6,34.2-13.4,52-18.1c15.4-4.1,30.7-8.5,45.2-15.1
			c27.7-12.6,35-38.3,28.6-60.2c-4.5-15.1-16.7-22.5-30.8-26.7c-13-3.8-26.3-5.5-39.9-5.1c-5.9,0.2-10.1,2-11.3,8.3"/>
		<path class="st0" d="M751.4,761.4c-3.7-0.2-6,2.2-8.3,4.5c-7,7-14,14.1-21.1,21.1c-2.5,2.5-4.5,5.8-9,5.5c-1.2-0.1-3,1.1-3.8,2.8
			c-4.8,10.9-12.6,19.2-22.5,25.7c-11.4,7.5-20,18.2-29.9,27.4c-14.8,13.7-31,26.2-43.2,42.7c-3.4,4.5-7.8,9.2-4.3,15
			c3.8,6.4,10.7,6.2,17.2,5c15.6-2.9,28.3-11.5,38.3-23.1c15.4-18,25.3-39.3,32.9-61.7c1.2-3.7,2-7.5,0.4-11.3"/>
		<path class="st0" d="M1141,633.3c9.3-0.4,18.6,0.9,27.9-1.8c13-3.7,23.7-10.8,32.3-20.9c8.2-9.6,7.1-25.3-1.4-34.6
			c-7.3-8-16-13.2-26.4-16.2c-16.1-4.7-24.3-1-28.6,16.3c-3.4,13.8-3.9,28-4.6,42.2c-0.2,4.3,0.5,8.6-0.8,12.8"/>
		<path class="st0" d="M1165.9,678.9c15,0.9,26.1,8.2,33.9,20.7c6.3,10.1,4.8,26.3-3.8,36.9c-3.8,4.6-8.2,9.1-13.5,12.1
			c-8.1,4.6-19.3,1.8-24.9-6c-5.7-7.9-8.7-16.9-10.7-26.3c-1.2-5.5-0.7-11.8-6.7-15.8c-2.6,1.7-4.5,4.5-5.6,8.2
			c-6.3,19.6-8.7,40-10.8,60.3c-1.5,14.8-2.1,29.6-3.1,44.5c-0.2,2.8-0.5,5.8,1.5,8.3"/>
		<path class="st0" d="M916.5,692c4.7-2.1,9.1-0.5,13.6,0.8c13.6,4,27.1,8.2,37,19.5c10.6,12.1,8.9,24.9-6.9,33.1
			c-4,2.1-8.7,2-12-2.8c-9.7-14.2-19.5-28.2-29.4-42.2c-0.2-0.3-0.7-0.5-0.7-0.8c-1.5-12.6-11-11.3-19.6-11.3
			c-16.3-0.1-32.7,0.8-49-1.4c-13.7-1.8-25.1,4-35.5,12.6c-14,11.6-27.2,24-39.9,37c-4.9,5-10.1,9.7-16.5,12.8"/>
		<path class="st0" d="M1049.9,384.6c2.7,2.8,4.3,6.2,5.2,9.8c7.6,30.1,15.1,60.3,22.7,90.4c1.1,4.3,3.3,8.2,6.7,11.3"/>
		<path class="st0" d="M1048.7,382.3c-12.8,18.1-17.3,39.9-26.8,59.5c-6.6,13.7-10,28.9-20.3,40.7"/>
		<path class="st0" d="M1001.6,484c-5.8-5.1-7.8-12.4-11.3-18.9c-2.9-5.3-5.5-10.7-9.8-15.1c-3-3-5.9-2.9-9.1,0
			c-5.5,5-7.9,11.9-11.3,18.1c-1.9,3.4-3.7,6.8-6.1,9.7c-2.1,2.7-4.4,2.3-6.8-0.6c-3.9-4.8-5.4-10.6-8.2-15.9
			c-2.1-4-2.6-9.2-8.3-10.2"/>
		<path class="st0" d="M1165.2,676.2c0.3,1.8-0.1,3-2.3,3c-1.8,0-3.5,0-5.3,0.6c-9.7,3.1-16.5,8.5-16.6,19.7"/>
	</g>
</g>
</svg>
