<?xml version="1.0" encoding="utf-8"?>
<!-- Generator: Adobe Illustrator 26.1.0, SVG Export Plug-In . SVG Version: 6.00 Build 0)  -->
<svg version="1.1" id="Ebene_1" xmlns="http://www.w3.org/2000/svg" xmlns:xlink="http://www.w3.org/1999/xlink" x="0px" y="0px"
	 viewBox="0 0 1726 1400.4" style="enable-background:new 0 0 1726 1400.4;" xml:space="preserve">
<style type="text/css">
	.st0{fill:none;stroke:#E51783;stroke-miterlimit:10;}
</style>
<g id="b">
	<g id="c">
		<path class="chopf" d="M1589.7,1103.2c0,0-11.2-1.6-12,3.7c-31.8-54.7-61.3-111.7-76.5-173.2c-15.2-61.5-15.3-128.3,10.3-186.3
			c10.5-23.8,25-45.6,38-68.1c24.1-42,43.3-88.7,41.7-137.1c-0.9-26.9-8.1-53.2-16.9-78.7c-24.8-72.4-62-140.5-109.5-200.6
			c-36.7-46.4-89.6-91.5-148-81.5c-51,8.8-88,65.6-75.5,115.8c2.3,9.1,6.2,18.2,13.5,24.1c8.9,7.2,21.2,8.3,32.7,8.1
			c30.9-0.5,61.3-7.8,92.1-10.1c30.8-2.3,63.8,1.2,88.5,19.8c24.7,18.6,37.1,55.8,20.3,81.8c-7.1,11.1-18.5,18.9-30.5,24.4
			c-55.1,25.2-129.7-2.6-150.4-59.5c-20.7-56.9,23.8-129,84.3-131.4c30-1.2,58.4,12.3,87.7,18.8c51.2,11.3,104.4,0.9,155.7-9.4
			c31.7-6.4,66.4-14.6,85.5-40.7c5.9-8.1,10-18.6,6.6-28c-4.2-12.1-18.3-17.2-30.7-20.1c-116.6-27.8-238.6-2-355.4,24.6
			c-22.6,5.2-46.3,10.3-68.8,4.7c-22.5-5.7-43.2-25.9-41-49c0.9-9.7,5.6-18.6,11.7-26.2c18.3-22.4,50.5-32.5,78.3-24.3
			c27.8,8.2,49.4,34.2,52.2,63c3.1,31.3-13.9,60.8-32.6,86.1c-20.4,27.6-44.5,53.7-75.4,68.6c-31,14.8-70.1,16.3-98.2-3.4
			c-35.6-25-43.4-76.1-32.2-118.1c5.9-21.8,16.8-43.5,35.7-55.9c18.9-12.4,47-12.4,62.1,4.5c21.7,24.3,4.5,64-20.3,85.2
			c-20.6,17.6-46.1,29.5-72.8,34.1c-11.8,2-24.6,2.5-35.1-3.3c-8.9-4.9-15-13.5-20.8-21.9c-30.9-44.8-63-101.6-38.6-150.2
			c14-27.9,44.2-44.8,74.8-50.6s62.2-2.1,93.2,1.7c25.3,3.1,53.4,7.5,69.2,27.5c15.7,19.8,13.9,47.7,15.6,73
			c1.8,26.4,8.3,52.5,19.2,76.6c16.1,35.5,53.1,70.3,89.6,56.6c17.2-6.4,29.3-22.5,35.8-39.6c18.2-47.8-3.7-105.7-45.7-134.9
			c-42-29.2-99.6-31-146.5-10.5c-46.9,20.5-83.2,61.1-105.1,107.3c-7,14.7-12.7,30.1-22.1,43.4c-8.5,12.1-19.9,22-32.5,29.8
			c-37.9,23.4-87.5,26.5-127.9,8s-70.6-58-77.7-101.9c-1.3-7.9-1.8-16.2,1-23.7c3.1-8.4,10.1-14.7,17.3-19.9
			c40.8-29.3,94.8-32.2,144.7-27c46.7,4.8,101.8,24.3,110.4,70.4c4.9,26.3-8.4,53.7-28.7,71.1c-20.3,17.5-46.5,26.4-72.8,31.9
			c-38.6,8.1-78.7,9.5-117.8,4.2c-13.1-1.8-27.3-4.2-38.8,2.4c-18.6,10.6-18.3,39.8-4.2,55.9s36.4,21.9,57.6,24.8
			c43.6,6,88.3,3.6,130.9-7.2c31.1-7.9,61.8-20.6,84.9-42.8c23.1-22.2,37.5-55.2,31.4-86.7c-8.4-43.3-57.1-73-100.3-64.1
			s-75.6,51.9-76.2,96s28,86.2,67.5,105.8c39.6,19.6,88,17.8,128.1-0.8c20.6-9.5,39.7-23.8,50.9-43.5c16.1-28.4,12.5-66.7-8.5-91.7
			s-58.1-35-88.9-24c22.5,62.7,82.9,110.2,90.5,176.3c1.8,16-0.4,33.9-11.9,45.1c-11.8,11.4-29.9,12.8-46.3,13.5
			c-49,2.1-107.4-0.5-133.6-41.9c-14-22.2-14.5-50.4-10.9-76.4c6.8-49.4,28.7-99.5,70.5-126.5s105.6-22.3,133.6,18.9
			c24.8,36.6,13.7,89.4-16.8,121.4c-15.3,16.1-35.6,28.4-57.8,29.9c-27.7,2-54-12.8-75-31c-25.3-21.8-46.4-51.1-49.3-84.4
			c-2.9-33.3,17.5-69.8,50.1-76.8c-32.5-28.2-88.7-12.8-110.2,24.5c-21.5,37.2-12.3,86.6,13.5,120.9c37.6,50,112,71,167.3,41.7
			c55.3-29.2,78.8-109.2,42.8-160.3c-10.2-14.5-25.1-26.7-42.7-29.4c-36.1-5.6-67.1,32.1-68.6,68.6c-1.9,46.4,34.1,91.3,79.7,99.5
			c27.1,4.9,54.9-1.9,82.4-2.5c34.9-0.8,70.8,9.1,97.1,32c26.3,22.9,41.4,59.7,33.8,93.7c-7.6,34-40.4,62.1-75.2,59.9
			c-37.1-2.3-64.9-34.5-84.1-66.4c-8.6-14.3-16.6-29.7-17.6-46.4c-1.1-18.2,6.3-35.8,15.2-51.6c21.3-37.9,53.6-71,94.4-86
			s90.4-9.3,122.2,20.4c43.3,40.3,40.5,116.3,0.4,159.7c-40.1,43.4-108.2,54.3-163.9,34.5c-25.8-9.2-51-26-60.1-51.8
			c-10.5-29.7,3.1-62.6,21.3-88.4c27-38.3,64.7-69,107.7-87.7c32.3-14,74.6-19.3,98.8,6.2c13.3,14,17.6,33.9,24.7,51.8
			c27.6,70.1,107.1,115.6,181.5,104c16-2.5,32.1-7.5,44.9-17.6c38.6-30.3,30.8-95.6-4.2-129.9c-35-34.3-86.9-44.5-135.8-48.3
			c-57-4.3-119.3-0.4-163,36.4c-31,26.1-48,65-74.3,95.9c-26.3,30.9-71.4,54.1-106.8,34.2c-30-16.9-38.3-59.1-25.7-91.1
			c12.6-32.1,40.8-55.3,70.3-73.3c50.3-30.7,107-49.9,164.9-61.4c59.1-11.7,121.4-15.3,178.8,3.3c57.3,18.5,109,62.2,125,120.3
			c5.4,19.4,6.3,41.7-4.9,58.4c-7,10.5-17.9,17.7-28.8,24.1c-88.3,51.5-197.1,66.8-296.2,41.5c-21.2-5.4-44.2-12.5-64.3-3.7
			c-9.7,4.2-17.7,11.9-23.9,20.5c-26,35.6-22.4,89.7,8.1,121.5c36.8,38.4,100.4,38.9,148.6,16.2c39.6-18.6,73.2-51.8,87.9-93.1
			s8.5-90.5-19.6-124c-28.1-33.6-78.5-48.1-118.7-30.6c-52.6,23-72.3,87.5-76,144.8c-3.2,49.3,0.9,99.1,12.1,147.3
			c7.6,32.6,24.1,69.6,57.1,75.1c38.8,6.5,67.6-35.1,80.9-72.2c9.8-27.3,16-61.2-3.6-82.6c-25.7-28.1-77.6-8.4-92.3,26.8
			c-14.7,35.2-3.4,75.5,10.9,110.9c6.2,15.3,17.8,33.1,34,30.1c11.2-2.1,17.8-13.5,22.3-24c20.5-48.2,27.3-102.2,19.5-154
			c-29.7,30.3-25,79.2-18.3,121.1c1,6.4,2.6,13.6,8.1,17c6.9,4.2,15.9-0.2,22-5.6c29.1-25.9,28.1-78-1.8-102.8
			c-7.3-6-16.9-10.6-25.9-8.1c-8.6,2.3-14.4,10.3-18.8,18c-19.8,34.7-27.2,76.3-20.3,115.7c1.9,11,5.1,22.2,12.3,30.7
			c17,20,50.9,16.7,70.9-0.3s29.2-43.3,36.1-68.6c6.9-25.3,12.4-51.8,7.4-77.5c-5-25.7-22.8-50.5-48.3-56.4
			c-29.5,18.3-26.6,62.5-13.3,94.6c13.3,32.1,33.8,64.6,27.5,98.7c-7,38.3-50.1,63.9-88.3,56.9c-38.3-6.9-68.3-41.4-75.7-79.6
			c-7.4-38.2,5.3-78.5,28.5-109.7c29.7-40,76-68.1,95.7-113.8c23.6-54.7-0.1-122.3-46.6-159.6c-46.5-37.3-110.5-47.2-169.3-38
			c-34.4,5.3-68.9,17.3-94.5,41c-44.6,41.3-51.8,116.8-15.8,165.8c36.1,49.1,102.1,65.1,162.9,68.4c17.6,0.9,35.9,1.3,51.4,9.7
			c15.5,8.3,26.7,27.7,19.5,43.7c-4.8,10.8-16.1,17-27.2,21.1c-61,22.5-129.2,2.4-188.4-24.5c-56.2-25.6-116.5-68.7-116.4-130.5
			c0.1-39.6,26.1-74.4,54-102.4c27.8-28,62.7-54,102.2-52.8c39.4,1.2,77.4,44.1,60,79.5c-4,8.1-10.3,14.9-16.9,21.1
			c-45.3,42.7-109.2,64.9-171.2,59.5c-26.4-2.3-55-11.3-68.7-34c-13.8-22.7-1.1-60.1,25.5-60.7c26.6-0.6,40.3,39.4,22.1,58.8
			c-18.2,19.4-53.2,14.6-70.6-5.6c6.6-12,13.5-24.5,24.4-32.8c10.9-8.3,27.1-11.4,38.3-3.5c11.2,7.9,13.7,24.9,7.4,37
			c-6.4,12.2-19.7,19.6-33.3,21.6c-5.2,0.7-10.7,0.7-15.6-1.4c-17.9-7.9-11.6-37.2,5.1-47.6c16.7-10.4,37.7-9.9,56.3-16.4
			c-24.2-6.2-52.5,5.2-63.6,27.6c-11.1,22.4-1.5,53.4,21.2,63.8c22.7,10.4,53.8-4.7,57.8-29.4c4.3-27-28.5-52.1-53.2-40.4
			c-24.7,11.7-25.6,53.7-1.2,65.9s57.8-14.3,50.8-40.7c-6-22.7-32.9-33.6-56.4-33c-14.1,0.3-30.6,5.7-34.2,19.3
			c-4.8,18.1,19.1,32.5,37.3,27.9c18.2-4.6,31.4-19.7,46.1-31.2c3.9-3.1,8.4-6.1,13.4-6c4.7,0.1,8.9,2.9,12.5,5.9
			c30.8,26.2,31.4,80.2,1.2,107.1c-30.2,26.9-83.8,19.9-106.2-13.7c-9.5-14.3-14.1-32.3-27.4-43c-16-12.9-38.8-11.1-59-14.9
			c-20.2-3.8-42.4-21.5-35.4-40.9c2.2-6.1,6.9-10.8,11.3-15.5c39.1-41.4,66.4-95.2,70-152c0.8-12.5,0.5-25.3,4.2-37.4
			c6.2-19.9,22.7-35.1,40.8-45.5c39.7-22.9,90-26.4,132.5-9.2c47.6,19.2,85.4,72.8,68.7,121.4c-18.2,52.9-88.1,69-142.3,55.1
			c-22.9-5.9-45.9-16.4-59.2-35.8c-15.8-23-14.7-55-1.6-79.7c13.1-24.7,36.4-42.7,61.7-54.5c9.3-4.4,19.2-8.1,29.5-7.9
			c12.4,0.2,24,6.1,34.3,13c31.5,21.2,54.3,52.9,76.7,83.6s46.1,61.9,78.6,81.6c32.6,19.6,76.4,25.3,107.9,3.9
			c8.9-6.1,17-15.1,17.6-25.9c0.6-11-6.6-20.8-13.5-29.5c-14.4-18.2-29.2-36.8-49.4-48.1s-47.3-13.6-65.5,0.7
			c-27.9,21.9-20.3,65.4-9,99.1c6.7,19.9,15.1,41.5,33.5,51.7c11.1,6.2,24.3,7.2,37,7c44.2-0.7,96.6-25.1,97.5-69.3
			c0.8-35.8-40.3-64.5-74.6-54.4c-34.4,10.1-53.9,52.4-42.4,86.4c9.1,27.1,37,47.8,65.3,44.9c28.4-2.9,52.4-32.2,46.2-60.1
			c-2.8-12.5-13.8-24.8-26.4-22.4c-8.7,1.7-14.6,9.6-19.2,17.2c-24.3,40.1-37.1,87-36.6,133.8c0.4,30.2,9.5,64.7,36.9,77.2
			c13.8,6.2,29.8,5.5,44.5,1.9c29.7-7.3,57.5-27.5,67.8-56.3c10.3-28.8-0.8-65.5-28.3-79c-10.9-5.3-24.3-6.7-35.1-1
			c-9.4,5-15.5,14.7-20.4,24.2c-7.6,14.8-13.6,30.4-17.8,46.5c-4.5,17.3-6.9,35.9-1.5,52.9c5.5,17.1,20.4,32,38.3,32.8
			c18.1,0.8,34.2-13,42.4-29.1c22.9-45-4.5-101.4-44.5-132.2c-39.9-30.9-90.1-44.9-134.9-68.1c-27.6-14.2-53.2-32.1-81.4-45.1
			c-73.1-33.9-161.4-32.6-233.5,3.2c-22.4,11.1-44.5,26.9-52.8,50.5c-3.9,11-4.5,23-7.3,34.4c-11.6,47.2-57,76.3-92.5,109.5
			c-5,4.7-10.3,10.3-10.4,17.2c-0.1,5.1,2.6,9.7,5.2,14.1c11.4,19.1,23.4,38.8,42.4,50.4s46.9,11.5,60.4-6l-54.1,9.4
			c-8.4,1.5-19.2,1.8-23-5.9c-3-6.1,0.7-13.1,2-19.8c3.2-16.7-13.4-34-30.2-31.5l-15.5,125.7c12.2-46.2,26.9-91.8,44-136.4
			c18.3,22.3,7.9,56.3-8.6,80c-16.5,23.7-38.8,45.1-44.3,73.4c-2.3,11.9,0.6,27.1,12.1,30.9c5.8,1.9,12.1,0.3,18.2-0.4
			c34.2-3.8,67.3,29.9,62.9,64c-34.4-10.9-68.9-21.7-103.3-32.6c9,11.2,25.8,15.1,38.8,9.3c-18.9-13.7-34.7-31.8-45.8-52.3
			c19.3-1.8,39,11.4,44.7,30l17.9-10.6c-17.2,3.6-37.2-0.5-48-14.4s-7.1-38.2,9.2-44.7c-1.4,22.1-2,46.5,12,63.6
			c14,17.1,48.4,16.1,52.8-5.6c-7.1-16.3-31.5-18.6-45.6-7.8c-14.1,10.8-19.6,29.6-20.9,47.3c-1.3,17.7,0.7,35.7-2.7,53.2
			c-6.6,34.5-33.2,69.3-18.3,101.2c11.6,24.8,42.4,32.7,69.3,37.7"/>
		<path class="st0" d="M815.8,842.3c25.2-52.5,78.7-90.4,136.6-96.7c18.6-2,38.5-0.8,54.4,9c9.9,6.1,17.9,15.1,28.5,20
			c9.7,4.5,20.7,5,31.2,6.5c39.3,5.8,74.4,26.8,112,39.5s83.3,15.6,113.1-10.7"/>
		<path class="st0" d="M1213.2,1172.3c-19.7,22.9-65.4,7.1-66.7-23.1c-0.6-13.3,5.8-25.8,9.9-38.4c24.8-75.7-28.4-152.4-46.4-230
			c-9.7-42.1-9-85.9-5.9-129c4.6-63.7,14.5-127.9,39.7-186.6c25.2-58.7,67.1-111.9,123.8-141.4c29.2-15.2,61.3-23.7,93.4-30.8
			c19.1-4.2,39.7-7.8,57.5,0.2c16,7.2,26.9,23.2,30.7,40.3c10,46.1-39.4,93.8-85.1,82.2c-64.2-16.3-74.3-107.6-128.5-145.7
			c-33.5-23.6-83-21.3-114.2,5.3s-41.4,75-23.4,111.9c15,30.9,46,51.2,78.1,63.6c58.4,22.6,127.7,22.6,180.9-10.4
			c53.2-33,84.7-102.4,64.4-161.6c-7.1-20.9-23.1-41.5-45.1-43.2c-23.9-1.8-43.4,19.2-54.2,40.6c-15.7,31-21.4,69.4-5.5,100.4
			c21.5,42.1,74.6,58.4,102,96.9c17.9,25.1,22.9,56.8,27.4,87.3c3,20.3,6.1,41.2,1.6,61.3c-3.9,17.6-13.4,33.4-23.1,48.6
			c-37.7,58.9-81.9,113.7-131.5,163.2c-33.9,33.8-71.6,67.1-86.8,112.4c17.7-86.2,92.8-146.5,161.1-202
			c68.2-55.5,139.5-123.7,144-211.5c-18.8,64.6-61.1,120-108.1,168.1c-68,69.6-160.2,130.9-256.1,114.1c-4.9-22.2,20.7-37.8,41.8-46
			c70.3-27,142-54.3,217.2-57.8c-0.8,21.2-19.4,37.1-37.6,48.1c-79.2,47.8-175.2,56.5-267.3,64c-26.6,2.2-53.6,4.3-79.7-1
			c-70.1-14.3-122.5-79.4-193.3-89.7c25.2,68.9,98.2,117.2,171.5,113.3c27.8-1.5,60.4-8,79.4,12.3c15.1,16.1,13.3,41,15.1,63
			c3.2,39,21.5,76.6,50.2,103.2c13.4,12.4,37.9,20.9,47.2,5.2c-90.5,41.8-172,102.9-237.6,178.1c33.4,6.7,60.1-26.1,79.9-53.9
			c37.4-52.5,80.8-100.8,129.1-143.6c-34.6-8.5-64-35.7-75.2-69.6c-14.1-42.7-4.3-99.4-41.8-124.2c-28.6-18.9-66.3-5.6-100.4-1.5
			c-26.7,3.2-54.1,0.2-79.4-8.7c-31.4-11-62.7-37.7-59.5-70.8c3.6-36.9,45.5-55.8,81.6-64.4c27.8-6.6,55.9-11.6,84.3-14.9
			c8.7-1,17.8-1.8,25.8,1.7c7.7,3.3,13.3,10.1,18.9,16.4c68.8,76.3,197.1,89,279.6,27.6"/>
		<path class="st0" d="M1454,874.2c40.5,97,92.6,189.2,154.7,274c-64.9-50-80.8-139.6-92.1-220.8c-8.3-59.8-16.6-120.1-14-180.4
			c3.6-84.5,28.3-166.6,40.4-250.3c5.5-37.8,8.3-76,8.5-114.2c0.2-34.5-1.9-70-16.2-101.4c-14.3-31.4-43.1-58.2-77.5-61.2
			c-11.9-1.1-24.4,0.9-34,7.9c-6.9,4.9-11.9,12-16.2,19.3c-38.6,64.9-29.3,154.6,21.9,210.1c19.8,21.5,54,37.9,77.1,20
			c9.7-7.5,14.8-19.4,19.1-30.9c15.4-41.7,25.2-85.4,28.8-129.7c1.2-14.8,1.6-30.5-5.2-43.7c-5-9.6-13.3-17-21.5-24.2l-55.7-48.9
			c26.2-43.3,91.3-48.8,134.8-23s69,73.7,86.3,121.2c19.5,53.5,28.3,121.4-13.2,160.3c-43.8,41.1-123.4,19-153.1-33.2
			c-16.9-29.7-20-69.1-0.5-97.1c19.5-28,64.4-37.4,89.1-13.9c16.9,16,20.6,41,27.2,63.3c6.5,22.3,20.6,46.5,43.8,49
			c21.1,2.3,40.1-16.1,45.3-36.7c5.2-20.5-0.2-42.3-7.3-62.3c-6.2-17.4-15.4-36.1-32.9-42c-17.4-5.9-36.2,3.3-51,14.1
			c-50.4,36.9-82.8,97.3-85.6,159.8c-0.9,19,4.4,42.6,22.8,47.3c31.4,8.1,43.9-45.5,75.2-54.1c26.8-7.3,50.5,27.8,40.8,53.9
			c-9.7,26.1-39.7,39.4-67.5,40.4c-5.4,0.2-11.1-0.1-15.6-3c-4.3-2.8-6.8-7.6-8.8-12.3c-15.1-34.5-16.6-74.8-4-110.4
			c4.2-11.8,10.3-23.7,20.8-30.6c19.4-12.9,48.2-3,60.3,16.9s9.8,46.1-0.3,67.1c-10.1,21-26.9,38-43.8,54
			c-11,10.4-22.7,21.5-26.2,36.3c-7.9,34.1,31.6,71.1,13.2,100.8c-9.2,14.8-29.9,19-46.7,14.2c-16.8-4.8-30.6-16.5-43.9-27.8
			c-6.7-5.7-13.6-11.8-17.1-19.9c-6.2-14.5,0.6-31.6,11.3-43.2s24.9-19.1,37.5-28.5c59.2-44.4,77.8-123.8,90.8-196.7
			c4.8-26.9,9.4-54.4,4.7-81.3s-20.4-53.5-45.7-63.7c-30.5-12.3-67.4,3.1-86.3,30s-22.4,62.2-17,94.6c5.2,31.6,24.2,66.6,56.1,68.9
			c34.9,2.5,58.7-35.5,66.1-69.7c7.2-33.2,4.6-73.2-22.3-94c-23.9-18.5-59.9-14.4-84.6,2.9c-24.8,17.3-40.1,45.2-50.9,73.4
			c-6.8,17.7-12.3,36.6-10.1,55.4c3.4,28.5,23.4,51.8,37.3,77c3,5.4,5.8,11.5,4.8,17.6c-0.9,6-5.2,10.8-9.5,15.2
			c-32.2,32.7-76,57.1-121.8,54.6c-45.8-2.6-90.9-38.5-93-84.3c-0.9-19.2,5.5-38.1,14.8-54.8c23.1-41.6,66.2-71.9,113.5-77.9
			c47.2-5.9,97.3,13.5,126.8,50.9c6.5,8.2,12.2,17.6,13.1,28c2,21.4-15.9,39.4-34,51c-39.6,25.5-87.8,37.3-134.8,33.1
			c-22.1-2-44.5-7.4-66-2.2s-41.6,26.2-35.8,47.5c5.6,20.7,30.2,28.7,51.2,33.4c29.8,6.6,62.6,12.6,89.5-1.8
			c16.3-8.7,28.3-24,37.1-40.3c40.7-75.2,14.6-179.4-56.7-226.6c-9.9-6.6-21.7-12.3-33.3-9.8c-14.8,3.2-23.6,18.3-28.9,32.5
			c-18.5,49-16.1,108.8,17.9,148.5c34,39.8,103.4,48.3,138.4,9.4c36.7-40.8,21.3-104.6,31.9-158.5"/>
		<path class="st0" d="M1015.2,290.7l-115-9.9c-20.8-28.7,2.6-68,27-93.7c31-32.7,71.7-64.7,116.2-57.8c31,4.8,55.7,27.5,83.5,42.1
			c31.2,16.4,67.7,22.7,102.6,17.6c15.7-2.3,34.6-11.4,33.4-27.2c-0.5-6.9-5-12.8-10.1-17.6c-24.3-23.2-60.8-27.4-94.5-27.1
			c-55.3,0.5-110.5,9.9-162.9,27.7c-15.8,5.4-31.9,11.9-43.7,23.7s-18.5,30.2-12.2,45.7c6.6,16.3,24.8,24.5,42,28.3
			c23,5.1,48.4,4.9,68.6-7.2s33.2-38.1,24.8-60.1c-11.5-30.2-51.5-36.1-83.7-33.5c-10.6,39-18.5,87.7,12.3,113.8
			c12.3,10.4,28.5,14.8,44.4,17.7c57.1,10.7,116.2,7.9,173,20c9.9,2.1,20.4,5.1,26.8,12.9c14.4,17.6-2.2,44.4-22.2,55.1
			c-26.4,14.1-59.8,14.7-86.4,0.9s-45.5-41.8-47.4-71.7c-2.1-32.3,14.2-63.2,34.1-88.8c27.3-35.2,62.2-64.6,101.6-85.4
			c13.7-7.2,29.4-13.6,44.3-9.2c22.3,6.7,30.9,33.4,34.4,56.4c3.7,24.6,5.6,49.6,5.6,74.5c0,35.1,1.5,79.2,33.8,92.8
			c28.6,12,61.8-13.2,70.1-43.1c8.3-29.9-0.9-61.6-10.1-91.3c-10.2-33.3-27.3-72.6-62-76.4c-29.9-3.3-55,23.6-66.2,51.5
			c-8.7,21.7-11.5,48.6,3.3,66.7c8.4,10.2,21,15.9,33.2,21c23.5,9.9,47.2,19.4,71.1,28.3c33.8,12.6,73.8,31.4,77,67.3
			c1.4,15.4-4.9,30.4-12.6,43.9c-28.1,49.5-76.8,86.8-131.9,100.8c-55.1,14.1-115.8,4.8-164.2-25.1c-19.5-12.1-37.8-28.5-44.6-50.5
			c-8.6-28.2,4.3-59.4,25.2-80.2c20.9-20.8,48.6-33.1,75.8-44.3c9.2-3.8,19.6-7.5,28.8-3.7c9.1,3.9,13.8,14,16.4,23.6
			c8.8,32.2,3.3,68.1-14.8,96.2c-15.2,23.6-39.9,45.7-36.7,73.6c1.6,13.4,9.8,25.3,20.1,33.9c30.8,25.6,75.4,23.5,115.3,20
			l119.2-10.4c18.3-1.6,38.5-4.1,50.6-18"/>
	</g>
</g>
</svg>
