<svg width="1713" height="1103" viewBox="0 0 1713 1103" fill="none" xmlns="http://www.w3.org/2000/svg">
<circle cx="339.5" cy="837.5" r="3.5" fill="white"/>
<circle cx="1127.5" cy="813.5" r="3.5" fill="white"/>
<circle cx="1131" cy="654" r="2" fill="white"/>
<circle cx="165.5" cy="16.5" r="3.5" fill="white"/>
<circle cx="363.5" cy="447.5" r="1.5" fill="white"/>
<circle cx="1699" cy="752" r="2" fill="white"/>
<circle cx="447.5" cy="531.5" r="1.5" fill="white"/>
<circle cx="985.5" cy="420.5" r="1.5" fill="white"/>
<circle cx="1684.5" cy="335.5" r="2.5" fill="white"/>
<circle cx="1412.5" cy="5.5" r="1.5" fill="white"/>
<circle cx="73" cy="34" r="2" fill="white"/>
<circle cx="1688.5" cy="181.5" r="2.5" fill="white"/>
<circle cx="501" cy="749" r="3" fill="white"/>
<circle cx="1647.5" cy="419.5" r="2.5" fill="white"/>
<circle cx="1040" cy="268" r="3" fill="white"/>
<circle cx="1001" cy="591" r="2" fill="white"/>
<circle cx="67.5" cy="1032.5" r="2.5" fill="white"/>
<circle cx="1441.5" cy="930.5" r="3.5" fill="white"/>
<circle cx="739" cy="1043" r="2" fill="white"/>
<circle cx="828.5" cy="180.5" r="2.5" fill="white"/>
<circle cx="466" cy="1102" r="3" fill="white"/>
<circle cx="1609.5" cy="897.5" r="3.5" fill="white"/>
<circle cx="1233.5" cy="570.5" r="1.5" fill="white"/>
<circle cx="1573.5" cy="620.5" r="3.5" fill="white"/>
<circle cx="1421.5" cy="219.5" r="1.5" fill="white"/>
<circle cx="1279.5" cy="258.5" r="3.5" fill="white"/>
<circle cx="785" cy="383" r="3" fill="white"/>
<circle cx="678" cy="216" r="3" fill="white"/>
<circle cx="1301.5" cy="939.5" r="3.5" fill="white"/>
<circle cx="498.5" cy="489.5" r="3.5" fill="white"/>
<circle cx="601.5" cy="148.5" r="1.5" fill="white"/>
<circle cx="1533" cy="958" r="3" fill="white"/>
<circle cx="237" cy="716" r="3" fill="white"/>
<circle cx="75.5" cy="506.5" r="3.5" fill="white"/>
<circle cx="542" cy="679" r="2" fill="white"/>
<circle cx="681.5" cy="68.5" r="2.5" fill="white"/>
<circle cx="917.5" cy="467.5" r="3.5" fill="white"/>
<circle cx="1077.5" cy="269.5" r="1.5" fill="white"/>
<circle cx="393" cy="41" r="3" fill="white"/>
<circle cx="1237" cy="239" r="2" fill="white"/>
<circle cx="1413" cy="85" r="3" fill="white"/>
<circle cx="296" cy="392" r="2" fill="white"/>
<circle cx="260.5" cy="14.5" r="3.5" fill="white"/>
<circle cx="306" cy="388" r="2" fill="white"/>
<circle cx="1093.5" cy="673.5" r="1.5" fill="white"/>
<circle cx="1140" cy="847" r="2" fill="white"/>
<circle cx="1239.5" cy="582.5" r="1.5" fill="white"/>
<circle cx="451.5" cy="21.5" r="2.5" fill="white"/>
<circle cx="131.5" cy="799.5" r="3.5" fill="white"/>
<circle cx="1259" cy="102" r="3" fill="white"/>
<circle cx="852" cy="68" r="2" fill="white"/>
<circle cx="213" cy="247" r="3" fill="white"/>
<circle cx="423" cy="661" r="3" fill="white"/>
<circle cx="882.5" cy="722.5" r="3.5" fill="white"/>
<circle cx="1670" cy="694" r="3" fill="white"/>
<circle cx="1098.5" cy="980.5" r="1.5" fill="white"/>
<circle cx="1302.5" cy="265.5" r="2.5" fill="white"/>
<circle cx="335" cy="1003" r="3" fill="white"/>
<circle cx="137.5" cy="340.5" r="2.5" fill="white"/>
<circle cx="1232.5" cy="169.5" r="3.5" fill="white"/>
<circle cx="1125.5" cy="601.5" r="1.5" fill="white"/>
<circle cx="143.5" cy="845.5" r="2.5" fill="white"/>
<circle cx="230.5" cy="1042.5" r="2.5" fill="white"/>
<circle cx="809.5" cy="342.5" r="1.5" fill="white"/>
<circle cx="835" cy="88" r="3" fill="white"/>
<circle cx="1710" cy="910" r="3" fill="white"/>
<circle cx="343.5" cy="192.5" r="1.5" fill="white"/>
<circle cx="381.5" cy="529.5" r="1.5" fill="white"/>
<circle cx="423.5" cy="84.5" r="3.5" fill="white"/>
<circle cx="753.5" cy="279.5" r="1.5" fill="white"/>
<circle cx="1633.5" cy="444.5" r="3.5" fill="white"/>
<circle cx="309" cy="79" r="2" fill="white"/>
<circle cx="1181.5" cy="203.5" r="1.5" fill="white"/>
<circle cx="1623.5" cy="293.5" r="3.5" fill="white"/>
<circle cx="50.5" cy="996.5" r="3.5" fill="white"/>
<circle cx="312" cy="639" r="3" fill="white"/>
<circle cx="1711.5" cy="1017.5" r="1.5" fill="white"/>
<circle cx="1188.5" cy="440.5" r="3.5" fill="white"/>
<circle cx="179.5" cy="1098.5" r="3.5" fill="white"/>
<circle cx="1654.5" cy="34.5" r="3.5" fill="white"/>
<circle cx="865.5" cy="97.5" r="1.5" fill="white"/>
<circle cx="2" cy="546" r="2" fill="white"/>
<circle cx="791.5" cy="92.5" r="2.5" fill="white"/>
<circle cx="1096.5" cy="912.5" r="2.5" fill="white"/>
<circle cx="378" cy="75" r="3" fill="white"/>
<circle cx="860.5" cy="280.5" r="2.5" fill="white"/>
<circle cx="679" cy="658" r="2" fill="white"/>
<circle cx="1660.5" cy="199.5" r="2.5" fill="white"/>
<circle cx="768" cy="215" r="2" fill="white"/>
<circle cx="928" cy="179" r="2" fill="white"/>
<circle cx="1020" cy="654" r="2" fill="white"/>
<circle cx="1233" cy="763" r="3" fill="white"/>
<circle cx="1158.5" cy="97.5" r="3.5" fill="white"/>
<circle cx="1031.5" cy="476.5" r="3.5" fill="white"/>
<circle cx="1708.5" cy="129.5" r="3.5" fill="white"/>
<circle cx="141.5" cy="690.5" r="3.5" fill="white"/>
<circle cx="621.5" cy="485.5" r="2.5" fill="white"/>
<circle cx="703" cy="443" r="2" fill="white"/>
<circle cx="401.5" cy="165.5" r="1.5" fill="white"/>
<circle cx="617" cy="244" r="2" fill="white"/>
<circle cx="338" cy="733" r="3" fill="white"/>
<circle cx="522" cy="224" r="3" fill="white"/>
<circle cx="1430.5" cy="964.5" r="3.5" fill="white"/>
<circle cx="1708" cy="388" r="3" fill="white"/>
<circle cx="1092.5" cy="847.5" r="2.5" fill="white"/>
<circle cx="844.5" cy="127.5" r="2.5" fill="white"/>
<circle cx="680.5" cy="1037.5" r="1.5" fill="white"/>
<circle cx="391.5" cy="343.5" r="1.5" fill="white"/>
<circle cx="905.5" cy="587.5" r="3.5" fill="white"/>
<circle cx="1292" cy="115" r="2" fill="white"/>
<circle cx="355" cy="816" r="3" fill="white"/>
<circle cx="61.5" cy="513.5" r="3.5" fill="white"/>
<circle cx="1266" cy="108" r="3" fill="white"/>
<circle cx="421.5" cy="1065.5" r="3.5" fill="white"/>
<circle cx="676.5" cy="22.5" r="2.5" fill="white"/>
<circle cx="1665.5" cy="1025.5" r="3.5" fill="white"/>
<circle cx="1226" cy="822" r="2" fill="white"/>
<circle cx="456.5" cy="489.5" r="3.5" fill="white"/>
<circle cx="679.5" cy="411.5" r="2.5" fill="white"/>
<circle cx="1065.5" cy="647.5" r="2.5" fill="white"/>
<circle cx="95.5" cy="66.5" r="2.5" fill="white"/>
<circle cx="1349.5" cy="118.5" r="1.5" fill="white"/>
<circle cx="218.5" cy="98.5" r="1.5" fill="white"/>
<circle cx="1439.5" cy="396.5" r="2.5" fill="white"/>
<circle cx="512" cy="966" r="3" fill="white"/>
<circle cx="224" cy="548" r="3" fill="white"/>
<circle cx="1481.5" cy="829.5" r="1.5" fill="white"/>
<circle cx="1388" cy="527" r="3" fill="white"/>
<circle cx="1461" cy="307" r="3" fill="white"/>
<circle cx="166.5" cy="890.5" r="3.5" fill="white"/>
<circle cx="444.5" cy="594.5" r="1.5" fill="white"/>
<circle cx="77" cy="948" r="3" fill="white"/>
<circle cx="49.5" cy="862.5" r="3.5" fill="white"/>
<circle cx="580" cy="886" r="2" fill="white"/>
<circle cx="653" cy="416" r="2" fill="white"/>
<circle cx="782.5" cy="385.5" r="1.5" fill="white"/>
<circle cx="1248.5" cy="931.5" r="3.5" fill="white"/>
<circle cx="672" cy="830" r="3" fill="white"/>
<circle cx="342.5" cy="869.5" r="3.5" fill="white"/>
<circle cx="1554" cy="813" r="2" fill="white"/>
<circle cx="860.5" cy="205.5" r="1.5" fill="white"/>
<circle cx="1137" cy="683" r="3" fill="white"/>
<circle cx="354.5" cy="510.5" r="1.5" fill="white"/>
<circle cx="351" cy="797" r="2" fill="white"/>
<circle cx="1628.5" cy="950.5" r="2.5" fill="white"/>
<circle cx="1226.5" cy="965.5" r="3.5" fill="white"/>
<circle cx="1224" cy="239" r="3" fill="white"/>
<circle cx="1270.5" cy="238.5" r="1.5" fill="white"/>
<circle cx="1067.5" cy="353.5" r="2.5" fill="white"/>
<circle cx="430.5" cy="389.5" r="3.5" fill="white"/>
<circle cx="261.5" cy="1033.5" r="1.5" fill="white"/>
<circle cx="1231.5" cy="804.5" r="2.5" fill="white"/>
<circle cx="653" cy="174" r="2" fill="white"/>
<circle cx="1029.5" cy="515.5" r="3.5" fill="white"/>
<circle cx="889.5" cy="77.5" r="3.5" fill="white"/>
<circle cx="6" cy="243" r="2" fill="white"/>
<circle cx="193.5" cy="610.5" r="3.5" fill="white"/>
<circle cx="1553" cy="1004" r="2" fill="white"/>
<circle cx="492" cy="443" r="3" fill="white"/>
<circle cx="1368" cy="8" r="2" fill="white"/>
<circle cx="483" cy="616" r="2" fill="white"/>
<circle cx="555.5" cy="215.5" r="1.5" fill="white"/>
<circle cx="195.5" cy="50.5" r="3.5" fill="white"/>
<circle cx="1365.5" cy="849.5" r="1.5" fill="white"/>
<circle cx="237.5" cy="723.5" r="3.5" fill="white"/>
<circle cx="593" cy="1026" r="2" fill="white"/>
<circle cx="609.5" cy="324.5" r="1.5" fill="white"/>
<circle cx="965" cy="523" r="3" fill="white"/>
<circle cx="841" cy="784" r="2" fill="white"/>
<circle cx="735" cy="1090" r="2" fill="white"/>
<circle cx="1092.5" cy="3.5" r="3.5" fill="white"/>
</svg>
