<svg width="1726" height="1117" viewBox="0 0 1726 1117" fill="none" xmlns="http://www.w3.org/2000/svg">
<path d="M219.881 836.951C219.881 810.59 218.904 784.01 220.181 757.677C222.496 709.933 253.537 678.513 289.396 649.876C364.552 589.855 453.623 549.364 545.536 522.557C617.507 501.565 691.502 488.673 766.092 481.718C836.176 475.184 907.525 472.659 977.79 477.965C1106.11 487.655 1276.56 544.408 1298.34 691.615C1303.31 725.174 1299.45 758.996 1303.14 792.509C1306.06 818.917 1322.3 834.585 1347.74 840.704C1383.17 849.229 1420.9 842.342 1453.59 827.267C1503.11 804.426 1549.27 765.314 1575.2 716.989C1596.64 677.016 1604.87 630.916 1594.42 586.366C1577.16 512.806 1515 452.136 1457.49 407.399C1394.01 358.018 1318.7 322.694 1239.11 309.732C1180.91 300.254 1120.67 300.444 1075.08 342.688C1052.69 363.436 1037.67 389.896 1025.38 417.533C1007.2 458.449 993.965 501.459 977.865 543.201C940.061 641.211 892.232 743.42 805.354 807.448C742.714 853.612 664.378 871.168 587.575 872.384C509.25 873.624 423.337 849.761 377.979 780.648C359.311 752.204 349.932 719.035 345.248 685.684C335.624 617.158 344.66 547.634 367.094 482.394C425.612 312.216 559.679 179.079 714.068 92.1789C754.928 69.1804 798.022 48.8632 843.715 37.4527C873.956 29.9007 911.717 24.6493 942.357 33.9995C1010.5 54.7938 960.64 159.731 937.703 194.95C859.798 314.566 734.51 393.304 593.881 415.056C531.459 424.711 467.426 422.025 405.004 414.155C368.569 409.562 332.863 401.33 296.753 394.937C288.223 393.427 275.836 389.848 266.95 392.009C253.593 395.258 264.916 423.508 266.8 429.47C297.051 525.206 367.8 615.658 459.13 659.26C495.948 676.837 537.91 687.71 579.017 686.06C646.085 683.367 706.269 647.782 754.531 603.332C816.319 546.425 863.002 473.432 894.912 396.138C918.206 339.715 934.525 277.81 938.453 216.72C940.052 191.855 940.069 163.356 928.769 140.374C915.981 114.364 888.14 103.148 860.23 104.566C794.368 107.911 731.717 177.252 727.431 242.019C725.199 275.738 745.271 298.804 775.1 311.985C830.484 336.457 897.016 338.005 956.395 340.962C1015.83 343.921 1075.29 343.335 1134.76 343.889C1158.67 344.112 1188.68 341.349 1211.63 350.496C1261 370.165 1152.11 451.431 1141.14 460.098C1076.46 511.196 1003.9 550.391 926.292 578.109C856.286 603.111 778.755 622.718 703.784 613.992C661.749 609.1 620.325 594.47 587.875 566.773C550.272 534.677 527.439 486.582 523.54 437.577C513.419 310.375 639.272 226.135 736.139 171.828C819.789 124.932 911.856 85.5581 1005.42 63.1267C1016.72 60.4169 1038.24 53.255 1050.16 58.022C1064.64 63.8168 1055.62 98.3135 1054.06 106.818C1043.76 163.092 1024.6 217.731 1006.92 271.972C989.185 326.371 970.833 380.593 955.119 435.625C945.249 470.188 936.929 505.111 928.844 540.123C924.516 558.867 921.06 578.847 912.479 596.276C896.928 627.86 857.827 630.609 826.674 633.135C783.905 636.603 740.42 635.814 697.703 632.084C652.519 628.139 607.101 620.34 566.03 600.179C537.67 586.259 511.421 566.933 493.137 540.724C468.498 505.407 460.602 460.457 458.454 418.359C454.985 350.371 468.551 265.766 519.111 215.519C542.439 192.336 576.145 178.267 607.919 192.548C630.788 202.826 648.238 222.851 662.795 242.62C682.218 268.995 696.555 298.271 709.414 328.275C735.786 389.809 753.336 456.387 789.589 513.248C809.486 544.455 835.538 570.089 867.587 588.769C913.119 615.307 965.151 625.088 1017.2 628.406C1068.39 631.668 1121.56 629.653 1171.47 616.695C1241.54 598.502 1304.1 556.691 1357.95 509.494C1410.15 463.737 1453.4 409.886 1480.01 345.391C1501 294.507 1516.53 234.704 1513.34 179.185C1507.15 71.2359 1404.12 11.0637 1311.18 -17.8741C1243.71 -38.8802 1171.23 -46.2479 1101.06 -37.017C1049.45 -30.2292 998.501 -13.3222 960.449 23.5647C917.93 64.7818 897.025 136.692 920.887 192.848C937.144 231.107 971.614 259.397 1001.81 286.236C1034.39 315.185 1068.99 342.604 1098.65 374.668C1118.77 396.412 1138.53 423.646 1138.44 454.843C1138.28 508.666 1093.9 555.731 1057.06 589.219C975.39 663.474 874.874 720.749 773.449 763.082C658.025 811.257 532.812 841.902 407.406 844.758C328.053 846.565 247.617 836.476 173.487 807.223C92.1266 775.116 21.3605 719.252 -25.5988 645.146C-69.074 576.539 -88.1074 496.021 -95.3391 415.957C-101.315 349.792 -96.9279 284.186 -81.2258 219.648C-75.0976 194.46 -67.1506 169.844 -56.9781 146.004C-53.5815 138.044 -40.3172 116.363 -46.7686 122.132C-73.043 145.627 -95.9625 175.556 -119.286 201.706C-173.972 263.019 -228.029 325.008 -278.736 389.682C-303.233 420.928 -327.289 452.898 -347.65 487.048C-359.252 506.507 -374.677 531.429 -375.126 555.062C-375.503 574.903 -358.063 587.828 -343.671 598.378C-313.396 620.57 -279.772 638.304 -245.63 653.704C-142.691 700.137 -32.7887 727.722 79.4995 738.233C144.83 744.349 211.573 747.762 276.709 737.708C338.978 728.097 398.776 705.965 452.749 673.523C549.139 615.584 629.934 523.636 677.209 421.662C700.505 371.41 713.711 316.808 717.446 261.612C720.822 211.746 717.047 159.727 698.078 112.973C668.444 39.9305 604.013 -11.7183 528.495 -31.0113C462.691 -47.8224 376.355 -45.4721 331.36 13.4302C302.052 51.7974 294.681 107.103 311.917 152.16C349.835 251.279 477.912 280 571.66 282.332C658.012 284.479 740.704 265.387 821.569 236.314C901.113 207.715 976.192 170.192 1039.72 114.099C1058.57 97.4612 1075.57 78.6766 1094.75 62.4511C1098.61 59.1836 1108.05 50.1623 1114.19 54.0432C1119.01 57.0854 1120.78 66.2343 1122.08 70.9341C1129.42 97.6866 1133.23 125.583 1135.14 153.211C1143.15 269.43 1125.59 390.432 1059.62 488.925C1002 574.94 917.11 637.227 815.563 658.959C768.167 669.103 715.135 674.494 668.2 658.959C615.672 641.573 581.211 597.844 560.024 548.381C500.086 408.451 527.252 237.414 587.275 102.464C640.921 -18.1509 741.286 -141.87 877.797 -168.54C925.316 -177.824 991.163 -169.219 1004.21 -112.988C1013.35 -73.6127 995.546 -30.5576 978.541 3.82126C937.358 87.0816 879.856 162.807 824.797 237.14C788.334 286.365 750.418 334.483 713.618 383.451C687.444 418.281 660.046 453.767 640.725 493.054C633.519 507.705 625.905 525.511 632.692 541.775C640.813 561.234 662.019 574.364 680.062 583.063C753.56 618.5 845.09 608.593 917.584 575.857C1028.26 525.875 1119.48 427.25 1160.51 313.261C1194.59 218.581 1205.79 103.471 1152.1 13.7305C1096.19 -79.732 985.391 -127.112 879.148 -124.474C731.658 -120.811 601.759 -29.1303 508.526 78.7414C453.399 142.524 399.871 221.29 409.058 310.183C412.29 341.454 424.466 371.124 437.434 399.441C459.983 448.677 487.062 498.098 522.864 539.072C591.945 618.131 701.438 656.276 805.429 645.372C845.193 641.202 884.564 629.261 917.283 605.734C963.215 572.708 986.311 520.9 1002.71 468.506C1017.12 422.476 1027.31 373.37 1026.06 324.897C1025.36 297.913 1020.31 270.131 999.485 251.103C984.791 237.675 965.419 230.722 946.26 226.63C908.431 218.55 867.269 218.331 829.001 222.726C733.567 233.687 639.157 276.697 560.399 330.677C535.958 347.429 499.189 370.013 496.139 403.195C493.417 432.822 518.383 462.309 530.972 487.123C562.625 549.517 585.788 616.266 601.688 684.333C617.21 750.781 625.785 818.43 629.839 886.497C632.732 935.067 635.013 985.346 627.287 1033.63C624.853 1048.85 620.898 1072.66 606.793 1082.73C597.716 1089.21 582.494 1089.48 572.561 1086.93C549.551 1081.05 518.055 1062.72 499.743 1051.05C405.815 991.194 319.044 918.654 232.042 849.412C150.416 784.449 68.6845 719.098 -9.53375 650.026C-62.3915 603.349 -114.522 555.085 -158.698 499.885C-211.465 433.951 -248.855 359.491 -267.85 277.077C-287.01 193.947 -289.133 106.377 -278.435 21.9132C-270.016 -44.5626 -253.579 -118.215 -209.221 -170.942C-183.145 -201.938 -154.167 -207.577 -115.983 -207.577C-92.4467 -207.577 -67.9841 -209.215 -44.5916 -206C9.23315 -198.602 44.4238 -140.359 67.0379 -96.1723C103.756 -24.4263 116.656 55.2458 118.386 135.194C121.431 275.924 79.5263 410.831 62.3835 549.432C59.0126 576.686 57.034 604.038 56.528 631.484C56.388 639.079 52.6778 663.134 62.4586 667.818C75.2281 673.933 101.504 657.126 111.855 652.428C141.534 638.958 171.113 625.256 200.738 611.665C237.724 594.697 274.909 573.881 315.37 566.548C325.928 564.634 336.646 564.085 347.35 563.995C349.835 563.975 353.909 563.294 356.359 564.296C360.763 566.097 363.642 571.494 368.82 572.103C376.449 573 383.552 571.191 390.44 568.049C402.398 562.595 411.937 554.859 422.27 546.879C438.957 533.994 455.683 521.424 470.615 506.492C500.6 476.507 530.398 445.67 563.402 418.96C594.688 393.641 627.565 374.901 668.501 373.767C697.522 372.964 725.979 379.086 750.402 395.237C765.021 404.905 780.319 417.722 785.16 435.325C787.652 444.386 782.978 446.33 774.65 447.862C728.605 456.33 683.833 466.442 638.548 478.641C625.226 482.229 472.567 524.817 472.567 493.73C472.567 482.619 487.301 477.357 495.314 473.311C521.796 459.936 553.196 445.907 583.146 444.183C620.662 442.024 663.786 445.462 699.43 457.396C719.367 464.071 738.815 474.809 752.129 491.478C766.072 508.934 772.878 531.311 777.052 552.885C789.579 617.63 785.874 685.079 764.891 747.617C747.232 800.248 721.404 852.159 683.064 892.803C619.491 960.199 522.291 985.892 431.579 976.056C353.993 967.643 280.164 913.954 256.215 838.302C248.307 813.322 245.309 783.511 248.708 757.451C252.909 725.24 276.698 703.815 302.984 687.336C420.218 613.837 560.484 590.61 696.577 587.567C760.491 586.139 829.492 582.981 891.234 602.431C939.867 617.752 982.512 646.696 1015.55 685.309C1076.06 756.026 1100.17 851.642 1082.59 943.4C1062.5 1048.2 970.025 1123.38 870.365 1148.64C828.147 1159.35 784.825 1163.76 741.394 1165.46C686.694 1167.6 631.498 1166.77 577.065 1160.65C450.249 1146.4 324.69 1104.58 214.1 1040.99C128.598 991.828 49.9099 926.452 -11.936 849.412C-63.1494 785.617 -98.1786 713.177 -106.074 631.108C-111.704 572.588 -102.837 514.946 -67.2628 466.93C-43.573 434.954 -12.9734 410.937 21.4702 391.409C65.6396 366.366 113.215 342.301 161.101 325.122C173.535 320.661 185.591 322.315 198.561 323.32C242.13 326.696 285.347 333.424 328.132 342.238C413.061 359.733 497.56 387.385 584.872 390.283C650.791 392.471 709.165 365.461 753.63 316.864C787.641 279.693 810.976 229.216 813.236 178.435C814.66 146.443 797.215 124.378 767.593 113.349C719.182 95.323 663.661 107.03 625.41 140.824C587.615 174.217 557.272 219.799 549.74 270.321C545.477 298.908 546.845 329.731 557.247 356.952C570.461 391.536 596.875 418.076 625.41 440.58C706.611 504.619 802.946 547.793 894.237 594.999C931.182 614.104 969.687 632.924 1002.41 658.959C1018.75 671.955 1036.01 688.612 1042.88 708.956C1051.5 734.534 1038.46 760.516 1024.41 781.399C983.027 842.88 921.625 892.247 864.659 938.296C774.957 1010.81 679.943 1076.89 575.564 1126.65C488.444 1168.17 394.318 1200.84 297.053 1204.42C244.878 1206.34 190.479 1200.01 142.258 1178.67C89.6615 1155.39 46.1912 1111.49 17.1913 1062.46C-43.9112 959.159 -38.0426 825.482 5.93069 717.289C53.3799 600.543 142.905 507.517 255.84 452.516C361.078 401.264 487.234 381.597 603.415 396.739C662.259 404.408 714.59 431.478 771.347 446.586C791.116 451.848 821.306 462.235 836.958 443.433C849.572 428.28 857.602 408.729 865.035 390.733C878.883 357.202 890.269 322.576 900.318 287.737C919.349 221.75 935.595 152.425 936.501 83.3957C936.97 47.7178 931.426 15.486 900.092 -5.56253C867.427 -27.5055 830.522 -20.0628 797.246 -3.08521C754.647 18.6493 713.809 52.685 686.067 91.8036C661.312 126.71 654.895 165.698 653.937 207.562C653.073 245.305 654.404 282.714 667.525 318.516C680.054 352.702 698.085 387.197 723.452 413.63C763.557 455.419 819.333 468.634 875.544 461.675C892.068 459.629 907.563 451.287 921.187 442.081C938.058 430.682 955.015 419.218 971.484 407.249C1001.06 385.753 1033.26 366.551 1056.31 337.508C1065.92 325.404 1074.49 312.359 1083.64 299.898C1097.55 280.957 1113.41 263.482 1129.58 246.448C1156.2 218.412 1186.21 192.011 1217.41 169.126C1237.67 154.27 1259.33 142.393 1281.22 130.315C1288.99 126.032 1298.74 127.537 1307.35 127.537C1327.28 127.537 1343.54 137.359 1362.45 143.077C1365.77 144.079 1420.36 162.415 1422.43 155.163C1425.01 146.126 1422.51 133.598 1422.51 124.159C1422.51 112.698 1422.51 101.237 1422.51 89.7767C1422.51 85.2474 1422.51 80.7182 1422.51 76.189C1422.51 71.2225 1428.06 70.4855 1432.12 69.1324C1455.16 61.4512 1479.01 57.3437 1502.83 52.9172C1533.85 47.1535 1564.41 40.6042 1596.07 39.855C1625.59 39.1562 1656.9 37.2196 1686.23 41.2062C1695.22 42.4279 1719.28 43.0147 1723.54 54.5687C1724.37 56.8355 1710.92 72.543 1708.97 74.7626C1704.08 80.3538 1700.08 86.4364 1694.79 91.7285C1689.83 96.6867 1682.37 97.6982 1675.49 97.8092C1655.71 98.1283 1640.7 95.3737 1622.79 86.0982C1578.17 62.9824 1533.99 34.3317 1483.31 26.4925C1469.28 24.3218 1445.72 19.9491 1434.37 31.297C1427.02 38.6457 1425.34 49.4666 1423.18 59.2982C1420.42 71.8684 1417.1 84.571 1417.1 97.5089C1417.1 106.91 1418.8 120.781 1431.29 120.781C1440.28 120.781 1449.75 122.132 1458.31 122.132C1466.23 122.132 1470.18 133.602 1475.21 138.347C1479.66 142.552 1487.17 144.774 1492.77 145.103C1495.4 145.258 1497.49 148.479 1500.2 149.082C1504.61 150.061 1509.36 149.777 1513.79 150.584C1522.85 152.231 1534.32 153.211 1543.44 153.211C1553.72 153.211 1565.39 159.967 1576.55 159.967" stroke="white" stroke-width="3" stroke-linecap="round"/>
</svg>
