<svg x="0px" y="0px"
	 viewBox="0 0 1726 1400.4" style="enable-background:new 0 0 1726 1400.4;" xml:space="preserve">
<style type="text/css">
	.line{fill:none;stroke:#2F4F4F;stroke-width:10;stroke-linejoin:round;}
</style>
<path class="line" d="M404.5,1026.2c0-24.5-0.9-49.3,0.3-73.8c2.2-44.4,31-73.7,64.4-100.3c69.9-55.9,152.8-93.5,238.4-118.5
	c67-19.5,135.8-31.5,205.2-38c65.2-6.1,131.6-8.4,197-3.5c119.4,9,278,61.8,298.3,198.8c4.6,31.2,1,62.7,4.5,93.9
	c2.7,24.6,17.8,39.2,41.5,44.8c33,7.9,68.1,1.5,98.5-12.5c46.1-21.3,89-57.7,113.2-102.6c20-37.2,27.6-80.1,17.9-121.6
	c-16.1-68.5-73.9-124.9-127.4-166.5c-59.1-46-129.2-78.8-203.2-90.9c-54.2-8.8-110.2-8.6-152.6,30.7c-20.8,19.3-34.8,43.9-46.2,69.6
	c-16.9,38.1-29.2,78.1-44.2,116.9c-35.2,91.2-79.7,186.3-160.5,245.9c-58.3,43-131.2,59.3-202.7,60.4c-72.9,1.2-152.8-21.1-195-85.4
	c-17.4-26.5-26.1-57.3-30.5-88.4c-9-63.8-0.5-128.5,20.3-189.2C595.9,537.9,720.7,414,864.3,333.1c38-21.4,78.1-40.3,120.6-50.9
	c28.1-7,63.3-11.9,91.8-3.2c63.4,19.4,17,117-4.3,149.8c-72.5,111.3-189.1,184.6-320,204.8c-58.1,9-117.7,6.5-175.8-0.8
	c-33.9-4.3-67.1-11.9-100.7-17.9c-7.9-1.4-19.5-4.7-27.7-2.7c-12.4,3-1.9,29.3-0.1,34.9c28.2,89.1,94,173.3,179,213.8
	c34.3,16.4,73.3,26.5,111.6,24.9c62.4-2.5,118.4-35.6,163.3-77c57.5-53,100.9-120.9,130.6-192.8c21.7-52.5,36.9-110.1,40.5-167
	c1.5-23.1,1.5-49.7-9-71c-11.9-24.2-37.8-34.6-63.8-33.3c-61.3,3.1-119.6,67.6-123.6,127.9c-2.1,31.4,16.6,52.8,44.4,65.1
	c51.5,22.8,113.5,24.2,168.7,27c55.3,2.8,110.6,2.2,166,2.7c22.2,0.2,50.2-2.4,71.5,6.1c45.9,18.3-55.4,93.9-65.6,102
	c-60.2,47.6-127.7,84-199.9,109.8c-65.1,23.3-137.3,41.5-207.1,33.4c-39.1-4.6-77.7-18.2-107.9-43.9c-35-29.9-56.2-74.6-59.9-120.2
	c-9.4-118.4,107.7-196.8,197.8-247.3c77.8-43.6,163.5-80.3,250.6-101.2c10.5-2.5,30.5-9.2,41.6-4.8c13.5,5.4,5.1,37.5,3.6,45.4
	c-9.6,52.4-27.4,103.2-43.9,153.7c-16.5,50.6-33.6,101.1-48.2,152.3c-9.2,32.2-16.9,64.7-24.5,97.2c-4,17.4-7.2,36-15.2,52.3
	c-14.5,29.4-50.9,31.9-79.8,34.3c-39.8,3.2-80.3,2.5-120-1c-42-3.7-84.3-10.9-122.5-29.7c-26.4-13-50.8-30.9-67.8-55.3
	c-22.9-32.9-30.3-74.7-32.3-113.9c-3.2-63.3,9.4-142,56.4-188.8c21.7-21.6,53.1-34.7,82.6-21.4c21.3,9.6,37.5,28.2,51.1,46.6
	c18.1,24.5,31.4,51.8,43.4,79.7c24.5,57.3,40.9,119.2,74.6,172.1c18.5,29,42.8,52.9,72.6,70.3c42.4,24.7,90.8,33.8,139.2,36.9
	c47.6,3,97.1,1.2,143.6-10.9c65.2-16.9,123.4-55.8,173.5-99.8c48.6-42.6,88.8-92.7,113.6-152.7c19.5-47.4,34-103,31-154.7
	c-5.8-100.5-101.6-156.4-188.1-183.4c-62.8-19.5-130.2-26.4-195.5-17.8c-48,6.3-95.4,22-130.8,56.4c-39.6,38.4-59,105.3-36.8,157.5
	c15.1,35.6,47.2,61.9,75.3,86.9c30.3,26.9,62.5,52.5,90.1,82.3c18.7,20.2,37.1,45.6,37,74.6c-0.1,50.1-41.4,93.9-75.7,125
	c-76,69.1-169.5,122.4-263.9,161.8c-107.4,44.8-223.9,73.3-340.6,76c-73.8,1.7-148.7-7.7-217.7-34.9
	c-75.7-29.9-141.6-81.9-185.3-150.8c-40.5-63.8-58.2-138.8-64.9-213.3c-5.6-61.6-1.5-122.6,13.1-182.7c5.7-23.4,13.1-46.3,22.6-68.5
	c3.2-7.4,15.5-27.6,9.5-22.2c-24.5,21.9-45.8,49.7-67.5,74C37.9,492.1-12.4,549.8-59.5,610c-22.8,29.1-45.2,58.8-64.1,90.6
	c-10.8,18.1-25.2,41.3-25.6,63.3c-0.4,18.5,15.9,30.5,29.3,40.3c28.2,20.7,59.5,37.2,91.2,51.5c95.8,43.2,198.1,68.9,302.6,78.7
	c60.8,5.7,122.9,8.9,183.5-0.5c57.9-8.9,113.6-29.5,163.8-59.7C710.9,820.2,786,734.6,830,639.7c21.7-46.8,34-97.6,37.4-148.9
	c3.1-46.4-0.4-94.8-18-138.3c-27.6-68-87.5-116-157.8-134c-61.2-15.6-141.6-13.5-183.4,41.4c-27.3,35.7-34.1,87.2-18.1,129.1
	c35.3,92.2,154.5,119,241.7,121.1c80.4,2,157.3-15.8,232.6-42.8c74-26.6,143.9-61.5,203-113.7c17.5-15.5,33.4-33,51.2-48.1
	c3.6-3,12.4-11.4,18.1-7.8c4.5,2.8,6.1,11.3,7.3,15.7c6.8,24.9,10.4,50.9,12.2,76.6c7.5,108.1-8.9,220.8-70.3,312.4
	c-53.6,80-132.6,138-227.1,158.2c-44.1,9.4-93.5,14.5-137.1,0c-48.9-16.2-80.9-56.9-100.7-102.9c-55.8-130.2-30.5-289.4,25.4-415
	c49.9-112.2,143.3-227.4,270.4-252.2c44.2-8.6,105.5-0.6,117.6,51.7c8.5,36.6-8.1,76.7-23.9,108.7
	c-38.3,77.5-91.8,147.9-143.1,217.1c-33.9,45.8-69.2,90.6-103.5,136.2c-24.4,32.4-49.9,65.4-67.8,102c-6.7,13.6-13.8,30.2-7.5,45.3
	c7.6,18.1,27.3,30.3,44.1,38.4c68.4,33,153.6,23.8,221-6.7c103-46.5,187.9-138.3,226.1-244.4c31.7-88.1,42.1-195.2-7.8-278.7
	c-52-87-155.1-131.1-254-128.6c-137.2,3.4-258.1,88.7-344.9,189.1C621.8,380,571.9,453.3,580.5,536c3,29.1,14.3,56.7,26.4,83.1
	c21,45.8,46.2,91.8,79.5,129.9c64.3,73.6,166.2,109.1,262.9,98.9c37-3.9,73.6-15,104.1-36.9c42.7-30.7,64.2-78.9,79.5-127.7
	c13.4-42.8,22.9-88.5,21.7-133.6c-0.7-25.1-5.4-51-24.7-68.7c-13.7-12.5-31.7-19-49.5-22.8c-35.2-7.5-73.5-7.7-109.1-3.6
	c-88.8,10.2-176.7,50.2-250,100.5c-22.7,15.6-57,36.6-59.8,67.5c-2.5,27.6,20.7,55,32.4,78.1c29.5,58.1,51,120.2,65.8,183.5
	c14.4,61.8,22.4,124.8,26.2,188.1c2.7,45.2,4.8,92-2.4,136.9c-2.3,14.2-5.9,36.3-19.1,45.7c-8.4,6-22.6,6.3-31.9,3.9
	c-21.4-5.5-50.7-22.5-67.8-33.4c-87.4-55.7-168.2-123.2-249.1-187.6c-76-60.5-152-121.3-224.8-185.5
	c-49.2-43.4-97.7-88.3-138.8-139.7C3.1,651.1-31.7,581.9-49.4,505.2c-17.8-77.4-19.8-158.8-9.9-237.4
	c7.8-61.9,23.1-130.4,64.4-179.5c24.3-28.8,51.2-34.1,86.8-34.1c21.9,0,44.7-1.5,66.4,1.5c50.1,6.9,82.8,61.1,103.9,102.2
	c34.2,66.8,46.2,140.9,47.8,215.3c2.8,131-36.2,256.5-52.1,385.5c-3.1,25.4-5,50.8-5.4,76.4c-0.1,7.1-3.6,29.5,5.5,33.8
	c11.9,5.7,36.3-9.9,46-14.3c27.6-12.5,55.1-25.3,82.7-37.9c34.4-15.8,69-35.2,106.7-42c9.8-1.8,19.8-2.3,29.8-2.4
	c2.3,0,6.1-0.7,8.4,0.3c4.1,1.7,6.8,6.7,11.6,7.3c7.1,0.8,13.7-0.8,20.1-3.8c11.1-5.1,20-12.3,29.6-19.7c15.5-12,31.1-23.7,45-37.6
	c27.9-27.9,55.6-56.6,86.3-81.5c29.1-23.6,59.7-41,97.8-42.1c27-0.7,53.5,4.9,76.2,20c13.6,9,27.8,20.9,32.3,37.3
	c2.3,8.4-2,10.2-9.8,11.7c-42.8,7.9-84.5,17.3-126.7,28.6c-12.4,3.3-154.5,43-154.5,14c0-10.3,13.7-15.2,21.2-19
	c24.6-12.4,53.9-25.5,81.7-27.1c34.9-2,75,1.2,108.2,12.3c18.6,6.2,36.7,16.2,49,31.7c13,16.2,19.3,37.1,23.2,57.1
	c11.7,60.2,8.2,123-11.3,181.2c-16.4,49-40.5,97.3-76.1,135.1c-59.2,62.7-149.6,86.6-234,77.5c-72.2-7.8-140.9-57.8-163.2-128.2
	c-7.4-23.2-10.1-51-7-75.2c3.9-30,26-49.9,50.5-65.2c109.1-68.4,239.6-90,366.3-92.8c59.5-1.3,123.7-4.3,181.1,13.8
	c45.3,14.3,84.9,41.2,115.7,77.1c56.3,65.8,78.7,154.8,62.4,240.2c-18.7,97.5-104.7,167.5-197.5,191c-39.3,10-79.6,14.1-120,15.7
	c-50.9,2-102.3,1.2-152.9-4.5c-118-13.3-234.9-52.2-337.8-111.4c-79.6-45.7-152.8-106.6-210.3-178.3
	c-47.7-59.4-80.3-126.8-87.6-203.1c-5.2-54.5,3-108.1,36.1-152.8c22-29.8,50.5-52.1,82.6-70.3c41.1-23.3,85.4-45.7,129.9-61.7
	c11.6-4.2,22.8-2.6,34.9-1.7c40.5,3.1,80.8,9.4,120.6,17.6c79,16.3,157.7,42,238.9,44.7c61.3,2,115.7-23.1,157-68.3
	c31.6-34.6,53.4-81.6,55.5-128.8c1.3-29.8-14.9-50.3-42.5-60.6c-45-16.8-96.7-5.9-132.3,25.6c-35.2,31.1-63.4,73.5-70.4,120.5
	c-4,26.6-2.7,55.3,7,80.6c12.3,32.2,36.9,56.9,63.4,77.8C857.4,716.9,947,757.1,1032,801c34.4,17.8,70.2,35.3,100.7,59.5
	c15.2,12.1,31.3,27.6,37.7,46.5c8,23.8-4.1,48-17.2,67.4c-38.5,57.2-95.6,103.2-148.7,146c-83.5,67.5-171.9,129-269,175.3
	c-81.1,38.6-168.7,69-259.2,72.4c-48.6,1.8-99.2-4.1-144-24c-48.9-21.7-89.4-62.5-116.4-108.1c-56.9-96.1-51.4-220.5-10.5-321.2
	c44.2-108.6,127.5-195.2,232.6-246.4c97.9-47.7,215.3-66,323.4-51.9c54.8,7.1,103.5,32.3,156.3,46.4c18.4,4.9,46.5,14.6,61.1-2.9
	c11.7-14.1,19.2-32.3,26.1-49c12.9-31.2,23.5-63.4,32.8-95.8c17.7-61.4,32.8-125.9,33.7-190.2c0.4-33.2-4.7-63.2-33.9-82.8
	c-30.4-20.4-64.7-13.5-95.7,2.3c-39.6,20.2-77.6,51.9-103.5,88.3c-23,32.5-29,68.8-29.9,107.7c-0.8,35.1,0.4,69.9,12.6,103.3
	c11.7,31.8,28.4,63.9,52,88.5c37.3,38.9,89.2,51.2,141.5,44.7c15.4-1.9,29.8-9.7,42.5-18.2c15.7-10.6,31.5-21.3,46.8-32.4
	c27.5-20,57.5-37.9,78.9-64.9c8.9-11.3,16.9-23.4,25.4-35c12.9-17.6,27.7-33.9,42.8-49.7c24.8-26.1,52.7-50.7,81.7-72
	c18.9-13.8,39-24.9,59.4-36.1c7.2-4,16.3-2.6,24.3-2.6c18.5,0,33.7,9.1,51.3,14.5c3.1,0.9,53.9,18,55.8,11.2
	c2.4-8.4,0.1-20.1,0.1-28.9c0-10.7,0-21.3,0-32c0-4.2,0-8.4,0-12.6c0-4.6,5.2-5.3,8.9-6.6c21.4-7.1,43.6-11,65.8-15.1
	c28.9-5.4,57.3-11.5,86.8-12.2c27.5-0.7,56.6-2.5,83.9,1.3c8.4,1.1,30.8,1.7,34.7,12.4c0.8,2.1-11.7,16.7-13.6,18.8
	c-4.6,5.2-8.3,10.9-13.2,15.8c-4.6,4.6-11.6,5.6-18,5.7c-18.4,0.3-32.4-2.3-49-10.9c-41.5-21.5-82.6-48.2-129.8-55.5
	c-13.1-2-35-6.1-45.5,4.5c-6.8,6.8-8.4,16.9-10.4,26.1c-2.6,11.7-5.7,23.5-5.7,35.6c0,8.7,1.6,21.7,13.2,21.7
	c8.4,0,17.2,1.3,25.1,1.3c7.4,0,11,10.7,15.7,15.1c4.1,3.9,11.1,6,16.3,6.3c2.4,0.1,4.4,3.1,6.9,3.7c4.1,0.9,8.5,0.6,12.6,1.4
	c8.4,1.5,19.1,2.4,27.6,2.4c9.6,0,20.4,6.3,30.8,6.3"/>
</svg>
